<?xml version="1.0" encoding="UTF-8" standalone="no"?>
<!-- Created with Inkscape (http://www.inkscape.org/) -->

<svg
   xmlns:dc="http://purl.org/dc/elements/1.1/"
   xmlns:cc="http://creativecommons.org/ns#"
   xmlns:rdf="http://www.w3.org/1999/02/22-rdf-syntax-ns#"
   xmlns:svg="http://www.w3.org/2000/svg"
   xmlns="http://www.w3.org/2000/svg"
   xmlns:sodipodi="http://sodipodi.sourceforge.net/DTD/sodipodi-0.dtd"
   xmlns:inkscape="http://www.inkscape.org/namespaces/inkscape"
   width="115.73357mm"
   height="131.59427mm"
   viewBox="0 0 410.07954 466.2789"
   id="svg2"
   version="1.1"
   inkscape:version="0.91 r13725"
   sodipodi:docname="turtle_3.svg"
   inkscape:export-filename="C:\Users\yyycatch\Documents\2015_catch\20150921_p5.turtle.js\0921b_images\turtle3.png"
   inkscape:export-xdpi="12.329901"
   inkscape:export-ydpi="12.329901">
  <defs
     id="defs4" />
  <sodipodi:namedview
     id="base"
     pagecolor="#ffffff"
     bordercolor="#666666"
     borderopacity="1.0"
     inkscape:pageopacity="0.0"
     inkscape:pageshadow="2"
     inkscape:zoom="1.1388033"
     inkscape:cx="386.0892"
     inkscape:cy="233.57851"
     inkscape:document-units="px"
     inkscape:current-layer="g4248"
     showgrid="false"
     fit-margin-top="0"
     fit-margin-left="0"
     fit-margin-right="0"
     fit-margin-bottom="0"
     inkscape:window-width="1366"
     inkscape:window-height="746"
     inkscape:window-x="-8"
     inkscape:window-y="-8"
     inkscape:window-maximized="1"
     borderlayer="true"
     showguides="true"
     inkscape:guide-bbox="true" />
  <metadata
     id="metadata7">
    <rdf:RDF>
      <cc:Work
         rdf:about="">
        <dc:format>image/svg+xml</dc:format>
        <dc:type
           rdf:resource="http://purl.org/dc/dcmitype/StillImage" />
        <dc:title></dc:title>
      </cc:Work>
    </rdf:RDF>
  </metadata>
  <g
     inkscape:label="レイヤー 1"
     inkscape:groupmode="layer"
     id="layer1"
     transform="translate(-285.04793,-425.29352)">
    <rect
       style="opacity:1;fill:none;fill-opacity:1;stroke:none;stroke-width:6;stroke-miterlimit:4;stroke-dasharray:none;stroke-dashoffset:0;stroke-opacity:1"
       id="rect4284"
       width="397.22336"
       height="467.15704"
       x="297.34155"
       y="424.41541"
       inkscape:export-xdpi="62.109474"
       inkscape:export-ydpi="62.109474" />
    <g
       id="g4248"
       transform="matrix(-1,0,0,1,980.17542,0)">
      <path
         sodipodi:nodetypes="sssss"
         inkscape:connector-curvature="0"
         id="path4165-6"
         d="m 471.71636,757.93042 c -8.23172,24.3825 -27.20605,116.68351 -13.71059,121.23969 13.49547,4.55617 54.3503,-80.35782 62.58202,-104.74031 8.23172,-24.38249 3.96461,-47.84191 -9.53086,-52.39808 -13.49546,-4.55618 -31.10885,11.51621 -39.34057,35.8987 z"
         style="opacity:1;fill:#00d4aa;fill-opacity:1;stroke:#000000;stroke-width:8;stroke-miterlimit:4;stroke-dasharray:none;stroke-dashoffset:0;stroke-opacity:1" />
      <g
         id="g4280"
         transform="translate(8.8348534e-6,0)"
         style="fill:#00d4aa;fill-opacity:1;stroke:#000000;stroke-width:8;stroke-miterlimit:4;stroke-dasharray:none">
        <path
           style="opacity:1;fill:#00d4aa;fill-opacity:1;stroke:#000000;stroke-width:8;stroke-miterlimit:4;stroke-dasharray:none;stroke-dashoffset:0;stroke-opacity:1"
           d="m 379.1629,671.30932 c -21.7067,-6.93547 -94.96794,-49.73614 -88.03247,-71.44284 6.93546,-21.70671 91.4413,-14.09957 113.148,-7.1641 21.7067,6.93545 33.68117,30.15453 26.7457,51.86124 -6.93546,21.70669 -30.15453,33.68116 -51.86123,26.7457 z"
           id="path4165-4"
           inkscape:connector-curvature="0"
           sodipodi:nodetypes="sssss"
           inkscape:transform-center-x="80.188737"
           inkscape:transform-center-y="-39.801173" />
        <path
           style="opacity:1;fill:#00d4aa;fill-opacity:1;stroke:#000000;stroke-width:8;stroke-miterlimit:4;stroke-dasharray:none;stroke-dashoffset:0;stroke-opacity:1"
           d="m 609.93423,651.38319 c 18.43937,-13.38923 74.5951,-76.99457 61.20588,-95.43393 -13.38923,-18.43937 -91.25317,15.26983 -109.69254,28.65906 -18.43937,13.38921 -22.53333,39.19138 -9.14411,57.63078 13.38923,18.43936 39.1914,22.53332 57.63078,9.1441 z"
           id="path4165-4-5"
           inkscape:connector-curvature="0"
           sodipodi:nodetypes="sssss"
           inkscape:transform-center-x="-59.795806"
           inkscape:transform-center-y="-66.058443" />
      </g>
      <g
         id="g4276"
         transform="translate(1.2783588,0)"
         style="fill:#00d4aa;fill-opacity:1;stroke:#000000;stroke-width:6;stroke-miterlimit:4;stroke-dasharray:none">
        <path
           style="opacity:1;fill:#00d4aa;fill-opacity:1;stroke:#000000;stroke-width:8;stroke-miterlimit:4;stroke-dasharray:none;stroke-dashoffset:0;stroke-opacity:1"
           d="m 607.71844,744.57944 c 14.7216,17.39414 54.12007,92.53977 36.72593,107.26136 -17.39415,14.72161 -84.9941,-36.55558 -99.71571,-53.94973 -14.72159,-17.39413 -12.55506,-43.42911 4.83908,-58.1507 17.39414,-14.72159 43.4291,-12.55508 58.1507,4.83907 z"
           id="path4165-4-5-3"
           inkscape:connector-curvature="0"
           sodipodi:nodetypes="sssss"
           inkscape:transform-center-x="-52.401979"
           inkscape:transform-center-y="72.751835" />
        <path
           style="opacity:1;fill:#00d4aa;fill-opacity:1;stroke:#000000;stroke-width:8;stroke-miterlimit:4;stroke-dasharray:none;stroke-dashoffset:0;stroke-opacity:1"
           d="m 378.07013,715.75126 c -20.28133,10.38987 -85.56231,64.58856 -75.17245,84.86989 10.38987,20.28134 92.51615,-1.03481 112.79749,-11.42468 20.28132,-10.38985 28.29994,-35.25379 17.91008,-55.53512 -10.38987,-20.28132 -35.25378,-28.29995 -55.53512,-17.91009 z"
           id="path4165-4-5-3-2"
           inkscape:connector-curvature="0"
           sodipodi:nodetypes="sssss"
           inkscape:transform-center-x="82.538918"
           inkscape:transform-center-y="38.031771" />
      </g>
      <path
         sodipodi:nodetypes="sssss"
         inkscape:connector-curvature="0"
         id="path4165"
         d="m 547.8633,478.29599 c 0,25.69675 -23.92237,119.08038 -53.43209,119.08038 -29.50972,0 -53.43209,-93.38363 -53.43209,-119.08038 0,-25.69676 23.92237,-46.5281 53.43209,-46.5281 29.50972,0 53.43209,20.83134 53.43209,46.5281 z"
         style="opacity:1;fill:#00d4aa;fill-opacity:1;stroke:#000000;stroke-width:8;stroke-miterlimit:4;stroke-dasharray:none;stroke-dashoffset:0;stroke-opacity:1" />
      <ellipse
         ry="139.78648"
         rx="144.68184"
         cy="685.21033"
         cx="493.3822"
         id="path4163"
         style="opacity:1;fill:#999999;fill-opacity:1;stroke:#000000;stroke-width:4;stroke-miterlimit:4;stroke-dasharray:none;stroke-dashoffset:0;stroke-opacity:1" />
      <path
         inkscape:connector-curvature="0"
         id="path4153"
         d="M 368.43015,753.35137 620.43227,615.67063"
         style="fill:none;fill-rule:evenodd;stroke:#ffffff;stroke-width:8;stroke-linecap:butt;stroke-linejoin:miter;stroke-miterlimit:4;stroke-dasharray:none;stroke-opacity:1" />
      <path
         inkscape:connector-curvature="0"
         id="path4155"
         d="m 493.73187,822.97971 0,-276.93743"
         style="fill:none;fill-rule:evenodd;stroke:#ffffff;stroke-width:8;stroke-linecap:butt;stroke-linejoin:miter;stroke-miterlimit:4;stroke-dasharray:none;stroke-opacity:1" />
      <path
         inkscape:connector-curvature="0"
         id="path4157"
         d="m 620.45039,756.09623 -254.83573,-140.23848 0,0"
         style="fill:none;fill-rule:evenodd;stroke:#ffffff;stroke-width:8;stroke-linecap:butt;stroke-linejoin:miter;stroke-miterlimit:4;stroke-dasharray:none;stroke-opacity:1" />
      <path
         transform="matrix(0.34427794,-0.00657154,0.00511962,0.3209999,319.83652,473.22586)"
         d="m 681.15417,782.41814 -101.27699,55.79452 -88.63778,49.3597 -98.95797,-59.81118 -87.06565,-52.08272 2.31902,-115.60571 1.57214,-101.44242 101.27698,-55.79453 88.63779,-49.3597 98.95797,59.81118 87.06565,52.08272 -2.31902,115.60571 z"
         inkscape:randomized="0"
         inkscape:rounded="0"
         inkscape:flatsided="false"
         sodipodi:arg2="1.1028528"
         sodipodi:arg1="0.54152447"
         sodipodi:r2="187.88667"
         sodipodi:r1="217.08301"
         sodipodi:cy="670.52423"
         sodipodi:cx="495.13055"
         sodipodi:sides="6"
         id="path4136-4"
         style="opacity:1;fill:#00d4aa;fill-opacity:1;stroke:#ffffff;stroke-width:24.0611763;stroke-miterlimit:4;stroke-dasharray:none;stroke-dashoffset:0;stroke-opacity:1"
         sodipodi:type="star" />
      <ellipse
         ry="139.78648"
         rx="144.68184"
         cy="685.21033"
         cx="493.3822"
         id="path4163-0"
         style="opacity:1;fill:none;fill-opacity:1;stroke:#000000;stroke-width:8;stroke-miterlimit:4;stroke-dasharray:none;stroke-dashoffset:0;stroke-opacity:1" />
    </g>
  </g>
</svg>
