<?xml version="1.0" encoding="UTF-8" standalone="no"?>
<!-- Created with Inkscape (http://www.inkscape.org/) -->

<svg
   xmlns:dc="http://purl.org/dc/elements/1.1/"
   xmlns:cc="http://creativecommons.org/ns#"
   xmlns:rdf="http://www.w3.org/1999/02/22-rdf-syntax-ns#"
   xmlns:svg="http://www.w3.org/2000/svg"
   xmlns="http://www.w3.org/2000/svg"
   xmlns:sodipodi="http://sodipodi.sourceforge.net/DTD/sodipodi-0.dtd"
   xmlns:inkscape="http://www.inkscape.org/namespaces/inkscape"
   width="115.73357mm"
   height="131.59427mm"
   viewBox="0 0 410.07954 466.2789"
   id="svg2"
   version="1.1"
   inkscape:version="0.91 r13725"
   sodipodi:docname="turtle.svg"
   inkscape:export-filename="C:\Users\yyycatch\Documents\2015_catch\20150921_p5.turtle.js\0921b_images\turtle.png"
   inkscape:export-xdpi="12.329901"
   inkscape:export-ydpi="12.329901">
  <defs
     id="defs4" />
  <sodipodi:namedview
     id="base"
     pagecolor="#ffffff"
     bordercolor="#666666"
     borderopacity="1.0"
     inkscape:pageopacity="0.0"
     inkscape:pageshadow="2"
     inkscape:zoom="1.1388033"
     inkscape:cx="209.8694"
     inkscape:cy="234.01757"
     inkscape:document-units="px"
     inkscape:current-layer="layer1"
     showgrid="false"
     fit-margin-top="0"
     fit-margin-left="0"
     fit-margin-right="0"
     fit-margin-bottom="0"
     inkscape:window-width="1366"
     inkscape:window-height="746"
     inkscape:window-x="-8"
     inkscape:window-y="-8"
     inkscape:window-maximized="1"
     borderlayer="true" />
  <metadata
     id="metadata7">
    <rdf:RDF>
      <cc:Work
         rdf:about="">
        <dc:format>image/svg+xml</dc:format>
        <dc:type
           rdf:resource="http://purl.org/dc/dcmitype/StillImage" />
        <dc:title></dc:title>
      </cc:Work>
    </rdf:RDF>
  </metadata>
  <g
     inkscape:label="レイヤー 1"
     inkscape:groupmode="layer"
     id="layer1"
     transform="translate(-290.91347,-425.73257)">
    <rect
       style="opacity:1;fill:none;fill-opacity:1;stroke:none;stroke-width:6;stroke-miterlimit:4;stroke-dasharray:none;stroke-dashoffset:0;stroke-opacity:1"
       id="rect4284"
       width="397.22336"
       height="467.15704"
       x="297.34155"
       y="424.41541"
       inkscape:export-xdpi="62.109474"
       inkscape:export-ydpi="62.109474" />
    <g
       id="g4248"
       transform="translate(1.892013e-6,0)">
      <path
         sodipodi:nodetypes="sssss"
         inkscape:connector-curvature="0"
         id="path4165-6"
         d="m 519.34382,764.27141 c 0,25.73455 -11.54692,119.25552 -25.79073,119.25552 -14.24382,0 -25.79072,-93.52097 -25.79072,-119.25552 0,-25.73455 11.5469,-46.59652 25.79072,-46.59652 14.24381,0 25.79073,20.86197 25.79073,46.59652 z"
         style="opacity:1;fill:#00d4aa;fill-opacity:1;stroke:#000000;stroke-width:8;stroke-miterlimit:4;stroke-dasharray:none;stroke-dashoffset:0;stroke-opacity:1" />
      <g
         id="g4280"
         transform="translate(8.8348534e-6,0)"
         style="fill:#00d4aa;fill-opacity:1;stroke:#000000;stroke-width:8;stroke-miterlimit:4;stroke-dasharray:none">
        <path
           style="opacity:1;fill:#00d4aa;fill-opacity:1;stroke:#000000;stroke-width:8;stroke-miterlimit:4;stroke-dasharray:none;stroke-dashoffset:0;stroke-opacity:1"
           d="m 379.58575,661.6366 c -20.38496,-10.18503 -86.20862,-63.72335 -76.02359,-84.10831 10.18503,-20.38497 92.52188,0.10278 112.90685,10.28781 20.38496,10.18502 28.65365,34.96691 18.46862,55.35188 -10.18503,20.38496 -34.96691,28.65365 -55.35188,18.46862 z"
           id="path4165-4"
           inkscape:connector-curvature="0"
           sodipodi:nodetypes="sssss" />
        <path
           style="opacity:1;fill:#00d4aa;fill-opacity:1;stroke:#000000;stroke-width:8;stroke-miterlimit:4;stroke-dasharray:none;stroke-dashoffset:0;stroke-opacity:1"
           d="m 612.32067,661.63659 c 20.38496,-10.18503 86.20862,-63.72335 76.02359,-84.10831 -10.18503,-20.38496 -92.52188,0.10279 -112.90685,10.28782 -20.38496,10.18502 -28.65365,34.9669 -18.46862,55.35188 10.18503,20.38496 34.96691,28.65365 55.35188,18.46862 z"
           id="path4165-4-5"
           inkscape:connector-curvature="0"
           sodipodi:nodetypes="sssss" />
      </g>
      <g
         id="g4276"
         transform="translate(1.2783588,0)"
         style="fill:#00d4aa;fill-opacity:1;stroke:#000000;stroke-width:6;stroke-miterlimit:4;stroke-dasharray:none">
        <path
           style="opacity:1;fill:#00d4aa;fill-opacity:1;stroke:#000000;stroke-width:8;stroke-miterlimit:4;stroke-dasharray:none;stroke-dashoffset:0;stroke-opacity:1"
           d="m 610.05908,736.95131 c 16.53876,15.67645 63.93338,86.05298 48.25693,102.59173 -15.67645,16.53877 -88.48762,-27.02312 -105.02639,-42.69957 -16.53875,-15.67644 -17.23779,-41.79205 -1.56134,-58.33081 15.67645,-16.53875 41.79204,-17.2378 58.3308,-1.56135 z"
           id="path4165-4-5-3"
           inkscape:connector-curvature="0"
           sodipodi:nodetypes="sssss" />
        <path
           style="opacity:1;fill:#00d4aa;fill-opacity:1;stroke:#000000;stroke-width:8;stroke-miterlimit:4;stroke-dasharray:none;stroke-dashoffset:0;stroke-opacity:1"
           d="m 379.29064,736.95131 c -16.53876,15.67645 -63.93338,86.05298 -48.25693,102.59173 15.67645,16.53877 88.48762,-27.02312 105.02639,-42.69957 16.53875,-15.67644 17.23779,-41.79205 1.56134,-58.33081 -15.67645,-16.53875 -41.79204,-17.2378 -58.3308,-1.56135 z"
           id="path4165-4-5-3-2"
           inkscape:connector-curvature="0"
           sodipodi:nodetypes="sssss" />
      </g>
      <path
         sodipodi:nodetypes="sssss"
         inkscape:connector-curvature="0"
         id="path4165"
         d="m 547.8633,478.29599 c 0,25.69675 -23.92237,119.08038 -53.43209,119.08038 -29.50972,0 -53.43209,-93.38363 -53.43209,-119.08038 0,-25.69676 23.92237,-46.5281 53.43209,-46.5281 29.50972,0 53.43209,20.83134 53.43209,46.5281 z"
         style="opacity:1;fill:#00d4aa;fill-opacity:1;stroke:#000000;stroke-width:8;stroke-miterlimit:4;stroke-dasharray:none;stroke-dashoffset:0;stroke-opacity:1" />
      <ellipse
         ry="139.78648"
         rx="144.68184"
         cy="685.21033"
         cx="493.3822"
         id="path4163"
         style="opacity:1;fill:#999999;fill-opacity:1;stroke:#000000;stroke-width:4;stroke-miterlimit:4;stroke-dasharray:none;stroke-dashoffset:0;stroke-opacity:1" />
      <path
         inkscape:connector-curvature="0"
         id="path4153"
         d="M 368.43015,753.35137 620.43227,615.67063"
         style="fill:none;fill-rule:evenodd;stroke:#ffffff;stroke-width:8;stroke-linecap:butt;stroke-linejoin:miter;stroke-miterlimit:4;stroke-dasharray:none;stroke-opacity:1" />
      <path
         inkscape:connector-curvature="0"
         id="path4155"
         d="m 493.73187,822.97971 0,-276.93743"
         style="fill:none;fill-rule:evenodd;stroke:#ffffff;stroke-width:8;stroke-linecap:butt;stroke-linejoin:miter;stroke-miterlimit:4;stroke-dasharray:none;stroke-opacity:1" />
      <path
         inkscape:connector-curvature="0"
         id="path4157"
         d="m 620.45039,756.09623 -254.83573,-140.23848 0,0"
         style="fill:none;fill-rule:evenodd;stroke:#ffffff;stroke-width:8;stroke-linecap:butt;stroke-linejoin:miter;stroke-miterlimit:4;stroke-dasharray:none;stroke-opacity:1" />
      <path
         transform="matrix(0.34427794,-0.00657154,0.00511962,0.3209999,319.83652,473.22586)"
         d="m 681.15417,782.41814 -101.27699,55.79452 -88.63778,49.3597 -98.95797,-59.81118 -87.06565,-52.08272 2.31902,-115.60571 1.57214,-101.44242 101.27698,-55.79453 88.63779,-49.3597 98.95797,59.81118 87.06565,52.08272 -2.31902,115.60571 z"
         inkscape:randomized="0"
         inkscape:rounded="0"
         inkscape:flatsided="false"
         sodipodi:arg2="1.1028528"
         sodipodi:arg1="0.54152447"
         sodipodi:r2="187.88667"
         sodipodi:r1="217.08301"
         sodipodi:cy="670.52423"
         sodipodi:cx="495.13055"
         sodipodi:sides="6"
         id="path4136-4"
         style="opacity:1;fill:#00d4aa;fill-opacity:1;stroke:#ffffff;stroke-width:24.0611763;stroke-miterlimit:4;stroke-dasharray:none;stroke-dashoffset:0;stroke-opacity:1"
         sodipodi:type="star" />
      <ellipse
         ry="139.78648"
         rx="144.68184"
         cy="685.21033"
         cx="493.3822"
         id="path4163-0"
         style="opacity:1;fill:none;fill-opacity:1;stroke:#000000;stroke-width:8;stroke-miterlimit:4;stroke-dasharray:none;stroke-dashoffset:0;stroke-opacity:1" />
    </g>
  </g>
</svg>
